<svg width="29" height="28" viewBox="0 0 29 28" fill="none" xmlns="http://www.w3.org/2000/svg">
<path fill-rule="evenodd" clip-rule="evenodd" d="M7.10487 14.3541L6.82633 12.6829H6.20526L14.7987 5.31708L23.3922 12.6829H22.7712L22.4926 14.3541L21.1045 22.6829H15.7987V17.1829C15.7987 16.9068 15.5749 16.6829 15.2987 16.6829H14.2987C14.0226 16.6829 13.7987 16.9068 13.7987 17.1829V22.6829H8.493L7.10487 14.3541ZM13.7987 24.6829H8.493C7.51532 24.6829 6.68094 23.9761 6.52021 23.0117L5.13208 14.6829H3.502C2.57359 14.6829 2.14631 13.5279 2.85121 12.9237L14.148 3.24074C14.5224 2.91975 15.075 2.91975 15.4495 3.24074L26.7463 12.9237C27.4512 13.5279 27.0239 14.6829 26.0955 14.6829H24.4654L23.0773 23.0117C22.9165 23.9761 22.0822 24.6829 21.1045 24.6829H15.7987H13.7987Z" fill="#BFBFBF"/>
</svg>
