<svg width="29" height="28" viewBox="0 0 29 28" fill="none" xmlns="http://www.w3.org/2000/svg">
<path fill-rule="evenodd" clip-rule="evenodd" d="M9.66667 13.0667C12.8699 13.0667 15.4667 10.7684 15.4667 7.93332C15.4667 5.09826 12.8699 2.79999 9.66667 2.79999C6.46342 2.79999 3.86667 5.09826 3.86667 7.93332C3.86667 10.7684 6.46342 13.0667 9.66667 13.0667ZM21.2667 14.9333C23.4022 14.9333 25.1333 13.2619 25.1333 11.2C25.1333 9.13812 23.4022 7.46665 21.2667 7.46665C19.1312 7.46665 17.4 9.13812 17.4 11.2C17.4 13.2619 19.1312 14.9333 21.2667 14.9333ZM0 23.8C0 18.3876 4.54431 14.9333 10.15 14.9333C15.7557 14.9333 20.3 18.3876 20.3 23.8C20.3 24.5732 19.6732 25.2 18.9 25.2H1.4C0.626802 25.2 0 24.5732 0 23.8ZM21.715 25.2C21.5596 25.2 21.4614 25.0289 21.5236 24.8864C21.6694 24.5524 21.75 24.1853 21.75 23.8C21.75 21.1463 20.8126 18.9208 19.2695 17.2276C19.1607 17.1083 19.2243 16.9137 19.3843 16.8922C19.8389 16.8312 20.3064 16.8 20.7833 16.8C25.3213 16.8 29 19.6262 29 24.0545C29 24.6872 28.4688 25.2 27.8136 25.2H21.715Z" fill="white"/>
</svg>
